<svg width="182" height="60" viewBox="0 0 182 60" fill="none" xmlns="http://www.w3.org/2000/svg">
<g clip-path="url(#clip0_2403_706)" filter="url(#filter0_d_2403_706)">
<path d="M55.5819 20.854C54.0969 17.265 51.7053 14.1312 48.6456 11.7649C45.5858 9.39869 41.9646 7.88262 38.143 7.36781C34.3214 6.85301 30.4328 7.35745 26.8646 8.83086C23.2965 10.3043 20.1735 12.6952 17.8068 15.7654C15.4402 18.8355 13.9125 22.4777 13.3761 26.329C12.8397 30.1802 13.3133 34.106 14.7496 37.7151C16.186 41.3242 18.535 44.4906 21.5625 46.8987C24.59 49.3068 28.1903 50.8726 32.0046 51.4399C31.505 49.6238 30.9967 47.6166 30.5488 45.4878C31.8519 46.3405 33.2235 47.0816 34.6492 47.7035V47.7035C34.6492 47.7035 34.7526 49.5804 34.8904 51.6745C36.4308 51.7013 37.9698 51.5644 39.4818 51.2661C39.4427 51.0477 39.4427 50.8241 39.4818 50.6057C39.7316 48.9808 40.4208 46.0526 40.5586 44.167C41.552 43.2297 42.3948 42.1421 43.0567 40.9434V40.9434L43.005 41.3257C42.5313 45.0273 41.5406 48.9808 40.9376 50.0757C40.7424 50.4381 40.5021 50.7739 40.2226 51.0749C43.3408 50.3371 46.2626 48.924 48.7855 46.9336C51.3083 44.9433 53.3718 42.4233 54.8329 39.5484C56.2941 36.6735 57.1179 33.5124 57.2472 30.2843C57.3765 27.0563 56.8083 23.8385 55.5819 20.854V20.854ZM54.3156 24.1472C53.9366 24.5208 53.1527 24.7728 53.0235 23.6432C52.8942 22.5136 52.8598 21.7229 52.8598 21.7229C52.8598 21.7229 51.1972 18.7425 50.577 18.7078C49.9568 18.673 45.5549 21.7229 44.3919 23.0524C43.3841 24.1733 43.1859 24.0951 43.1859 26.0675C43.1859 27.5534 43.3755 33.1666 43.2721 37.459L36.2514 39.3446C34.0448 39.9834 31.8007 40.4825 29.5323 40.8391L28.6709 35.7733H28.5503L26.3364 24.3297C26.3364 24.3297 23.0543 23.0784 21.8483 22.7396C21.2821 22.4897 20.6568 22.4084 20.0462 22.5054C19.4356 22.6024 18.8653 22.8736 18.4026 23.287C17.9306 23.7039 17.5531 24.2185 17.296 24.7958C17.0388 25.373 16.908 25.9994 16.9124 26.6323C17.0945 27.0362 17.2331 27.4585 17.3258 27.8922C17.3689 28.3093 16.2921 28.2659 15.603 28.2659C14.9138 28.2659 14.8105 27.0146 15.3532 25.5462C15.7766 24.417 16.3013 23.3292 16.921 22.2964C17.387 21.3738 17.9881 20.5273 18.7041 19.7852C18.7041 19.7852 18.8247 19.4898 19.7809 19.5767C20.7371 19.6636 26.0521 19.9503 26.0521 19.9503L26.0952 17.9779C31.8722 17.1733 37.6987 16.7842 43.5305 16.8135C43.5305 17.3436 43.5305 17.8736 43.5305 18.4037C45.7394 17.3869 48.118 16.7974 50.5425 16.6658C50.6723 16.6625 50.8008 16.6917 50.9166 16.7509C51.0323 16.81 51.1317 16.8972 51.2058 17.0047C51.4987 17.3783 53.2819 19.6115 53.4886 19.933C54.0677 20.7677 54.5942 21.6383 55.065 22.5397C54.9037 23.1104 54.6505 23.6505 54.3156 24.1385V24.1472Z" fill="#FDC305"/>
<path d="M52.6363 18.8294C53.0411 19.3508 53.3943 19.8113 53.4977 19.9503C54.0768 20.7851 54.6033 21.6557 55.0741 22.5571C54.9102 23.1091 54.6601 23.6312 54.3333 24.1038C53.9543 24.4774 53.1704 24.7294 53.0411 23.5998C52.9119 22.4702 52.8602 21.7229 52.8602 21.7229C52.8602 21.7229 51.1977 18.7425 50.5775 18.7078C49.9572 18.673 45.5553 21.7229 44.3924 23.0524C43.3845 24.1733 43.1864 24.0951 43.1864 26.0675C43.1864 27.3709 43.3328 31.8458 43.2984 35.8254C44.8576 35.9992 47.149 36.4337 47.8381 37.459C47.8381 37.459 47.5883 31.2202 54.5659 34.4873C54.5659 34.4873 54.8071 25.9806 64.4378 28.1616C61.1639 24.2844 57.1505 21.1107 52.6363 18.8294V18.8294Z" fill="#F06351"/>
<path d="M43.5654 16.8135C43.6005 11.9987 43.1968 7.1907 42.3594 2.45035C42.3594 2.45035 42.2302 1.32075 41.61 2.24181C41.0982 3.34291 40.7499 4.51402 40.5763 5.71747C36.8938 5.47914 33.1975 5.57802 29.5328 6.0129C28.8264 3.62338 27.6204 2.53724 27.0432 2.82398C26.4661 3.11072 26.3972 5.67403 26.3972 5.67403L26.1129 17.9779C31.8956 17.1725 37.7279 16.7834 43.5654 16.8135V16.8135Z" fill="#F06351"/>
<path d="M43.0651 40.9434C43.1771 40.0136 43.2374 38.7798 43.2719 37.4156L36.2516 39.3011C34.0459 39.9546 31.8019 40.4682 29.5327 40.8391L30.4889 45.1837C30.4889 45.2793 30.4889 45.3748 30.5492 45.4704C31.8522 46.3231 33.2238 47.0642 34.6494 47.6862C36.7328 46.6815 38.7171 45.4799 40.5757 44.0975V44.1497C41.5647 43.217 42.4044 42.1354 43.0651 40.9434V40.9434Z" fill="#E55645"/>
<path d="M31.5657 14.0938C31.5227 14.0069 32.4271 14.6847 32.7803 14.8932C33.1334 15.1018 33.3057 15.2582 33.3057 15.4059C33.3057 15.5536 33.0818 15.7013 32.7717 15.7013C32.4616 15.7013 31.9792 15.5971 31.9103 15.4754C31.8414 15.3538 32.4271 15.4754 32.72 15.4754H32.9698C32.4395 15.084 31.9667 14.6189 31.5657 14.0938Z" fill="black"/>
<path d="M38.0264 14.1894C38.0264 14.1894 37.165 15.3016 37.0875 15.3538C37.0099 15.4059 36.941 15.6492 37.2511 15.6057C37.6071 15.5521 37.9585 15.4708 38.302 15.3624C38.3968 15.3103 38.3623 15.1887 38.1986 15.206C38.035 15.2234 37.6129 15.2495 37.3373 15.3016L38.0694 14.1981C38.0694 14.1981 38.0953 14.0938 38.0264 14.1894Z" fill="black"/>
<path d="M35.3215 19.4985C35.7208 19.321 36.0508 19.0156 36.2604 18.6296C36.5016 18.0561 36.2604 17.8389 35.8814 17.7607C35.36 17.6647 34.8218 17.7702 34.374 18.0561C34.038 18.3776 34.0811 18.6904 34.374 18.925C34.6649 19.1552 34.9832 19.3478 35.3215 19.4985V19.4985Z" fill="black"/>
<path d="M35.0113 20.5933C34.9124 20.7904 34.778 20.9672 34.615 21.1147C34.3697 21.3138 34.0682 21.4294 33.7537 21.4449C33.2794 21.4918 32.8052 21.3552 32.4271 21.0625C32.2535 20.9601 32.099 20.8278 31.9706 20.6715C31.8844 20.5769 31.7785 20.5027 31.6605 20.4543C31.6605 20.4543 32.3065 24.0255 33.8743 24.599C35.442 25.1725 35.7348 23.9387 35.7779 23.6085C35.8304 22.6196 35.5841 21.6379 35.0716 20.7932C35.0716 20.5325 35.0544 20.7063 35.0113 20.5933Z" fill="#F06351"/>
<path d="M33.5469 21.5839C33.1438 21.5254 32.7566 21.3852 32.4087 21.1716C32.0608 20.9581 31.7594 20.6756 31.5226 20.3413C31.5015 20.3174 31.4897 20.2865 31.4897 20.2544C31.4897 20.2224 31.5015 20.1915 31.5226 20.1676C31.5339 20.156 31.5473 20.1468 31.5621 20.1405C31.5769 20.1343 31.5927 20.131 31.6088 20.131C31.6248 20.131 31.6407 20.1343 31.6555 20.1405C31.6703 20.1468 31.6837 20.156 31.6949 20.1676C31.9081 20.4692 32.1785 20.7252 32.4905 20.9206C32.8025 21.116 33.1499 21.2469 33.5124 21.3058C33.7993 21.2841 34.0769 21.194 34.3225 21.0429C34.5681 20.8919 34.7746 20.6842 34.9251 20.4369L35.0457 20.2718L35.1319 20.463C35.1319 20.463 35.4592 21.1234 35.9932 21.1581C36.5273 21.1929 36.9063 20.7932 37.3973 20.0372C37.4156 20.0096 37.444 19.9904 37.4763 19.9838C37.5086 19.9773 37.5422 19.984 37.5696 20.0025C37.597 20.0209 37.616 20.0496 37.6225 20.0822C37.6289 20.1147 37.6223 20.1486 37.604 20.1762C37.0298 21.0278 36.4871 21.4362 35.976 21.4014C35.7785 21.375 35.5893 21.3043 35.4224 21.1946C35.2554 21.0848 35.115 20.9388 35.0113 20.7671C34.8427 21.0045 34.6238 21.201 34.3705 21.3423C34.1172 21.4836 33.8358 21.5661 33.5469 21.5839Z" fill="black"/>
<path d="M35.2353 33.2795C37.0192 33.2795 38.4655 31.8207 38.4655 30.0211C38.4655 28.2215 37.0192 26.7626 35.2353 26.7626C33.4513 26.7626 32.0051 28.2215 32.0051 30.0211C32.0051 31.8207 33.4513 33.2795 35.2353 33.2795Z" fill="#FDC305"/>
<path d="M39.5163 27.3709L36.8202 28.5092L37.8108 23.6172L31.3504 32.0978L34.0465 30.9595L33.0559 35.8602L39.5163 27.3709ZM33.1507 30.6988L36.734 25.998L36.0363 29.4737L37.7591 28.7611L34.1499 33.4707L34.8476 29.995L33.1507 30.6988Z" fill="#111111"/>
<path d="M31.9447 29.4215C32.4775 29.4215 32.9095 28.9858 32.9095 28.4483C32.9095 27.9109 32.4775 27.4751 31.9447 27.4751C31.4119 27.4751 30.9799 27.9109 30.9799 28.4483C30.9799 28.9858 31.4119 29.4215 31.9447 29.4215Z" fill="#111111"/>
<path d="M37.5612 32.9493C37.9371 32.9493 38.2417 32.642 38.2417 32.2629C38.2417 31.8838 37.9371 31.5764 37.5612 31.5764C37.1854 31.5764 36.8807 31.8838 36.8807 32.2629C36.8807 32.642 37.1854 32.9493 37.5612 32.9493Z" fill="#111111"/>
<path d="M38.3882 31.0638C38.5547 31.0638 38.6897 30.9276 38.6897 30.7597C38.6897 30.5917 38.5547 30.4555 38.3882 30.4555C38.2217 30.4555 38.0867 30.5917 38.0867 30.7597C38.0867 30.9276 38.2217 31.0638 38.3882 31.0638Z" fill="#111111"/>
<path d="M43.5224 18.3863C41.9674 19.8002 40.5029 21.3123 39.1377 22.9133C37.7778 24.5028 36.2433 25.9312 34.5635 27.171C34.374 26.7105 33.1594 25.8503 33.1594 25.8503C33.1594 25.8503 30.4545 23.9821 28.6799 22.5136C27.7207 21.7077 26.8169 20.8368 25.9751 19.9069L24.2522 19.8113C26.7392 23.4757 30.3826 26.183 34.5893 27.4925C35.3302 27.3709 37.4148 25.8677 38.974 24.6425C40.8187 23.0601 42.5461 21.3437 44.1426 19.5072C44.5717 18.9928 44.9044 18.4039 45.1246 17.7693C44.1426 18.0995 43.5224 18.3863 43.5224 18.3863Z" fill="#F06351"/>
<path d="M26.3368 24.3297C26.3368 24.3297 23.0548 23.0784 21.8488 22.7396C21.2825 22.4897 20.6572 22.4084 20.0467 22.5054C19.4361 22.6024 18.8658 22.8736 18.4031 23.287C17.931 23.7039 17.5536 24.2185 17.2964 24.7958C17.0393 25.373 16.9084 25.9994 16.9128 26.6323C17.0949 27.0362 17.2335 27.4585 17.3263 27.8922C17.3694 28.3093 16.2926 28.2659 15.6034 28.2659C14.9143 28.2659 14.8109 27.0146 15.3536 25.5462C15.777 24.417 16.3018 23.3292 16.9214 22.2964C12.2266 24.7641 4 30.4642 4 30.4642C6.35316 30.3211 8.71429 30.3909 11.0551 30.6728C15.5776 31.1333 15.3622 34.7306 15.3622 34.7306C16.9529 34.2883 18.574 33.9659 20.2121 33.7661C22.0383 33.6445 22.1675 35.6082 22.1675 35.6082L22.6241 38.9622C23.3173 38.2057 24.0819 37.5189 24.9069 36.9116C25.9703 36.0529 27.3243 35.6476 28.6799 35.782V35.782L26.3368 24.3297Z" fill="#F06351"/>
<path d="M77.7899 36.4945C76.9025 35.1681 76.4782 33.5814 76.584 31.9848V25.468C76.472 23.8596 76.8899 22.2589 77.7727 20.9148C78.5709 19.8779 79.9348 19.3624 81.8643 19.3682C83.7938 19.374 85.1002 19.8287 85.7836 20.7324C86.6168 21.8522 87.0234 23.2368 86.9292 24.6338V26.1631H83.3631V24.5035C83.3583 24.0668 83.3208 23.6311 83.2511 23.2001C83.208 22.8881 83.066 22.5985 82.8462 22.3746C82.7106 22.2573 82.5531 22.1684 82.3831 22.1132C82.213 22.058 82.0337 22.0376 81.8557 22.0531C81.6 22.0146 81.3388 22.0565 81.1076 22.1731C80.8764 22.2898 80.6864 22.4754 80.5636 22.7048C80.3371 23.315 80.2374 23.9657 80.2707 24.6164V32.8885C80.2314 33.5435 80.3465 34.1986 80.6066 34.8001C80.7309 35.0171 80.9153 35.1927 81.1372 35.3054C81.3591 35.4181 81.6088 35.463 81.8557 35.4344C82.0982 35.469 82.3454 35.4255 82.5619 35.31C82.7785 35.1946 82.9533 35.0131 83.0616 34.7914C83.27 34.1801 83.3606 33.5342 83.3286 32.8885V31.1507H86.8948V32.6539C86.9997 34.0715 86.6263 35.4832 85.8353 36.6596C85.0772 37.6154 83.7679 38.0846 81.9073 38.0846C80.0467 38.0846 78.591 37.5633 77.7899 36.4945Z" fill="#111111"/>
<path d="M91.788 19.6201H95.871L99.3166 37.8674H95.9227L95.3111 33.8356H92.4513L91.7622 37.8413H88.3167L91.788 19.6201ZM94.9321 31.5417L93.8468 24.208L92.77 31.5417H94.9321Z" fill="#111111"/>
<path d="M101.962 22.3659H99.1707V19.6201H108.405V22.3659H105.648V37.8413H101.953L101.962 22.3659Z" fill="#111111"/>
<path d="M115.65 19.6201H122.653V21.5144H118.174V27.536H121.809V29.3346H118.174V36.0166H122.696V37.8413H115.65V19.6201Z" fill="#444444"/>
<path d="M124.729 19.6201H126.452L131.62 31.7241V19.6201H133.722V37.8674H132.111L126.943 25.4245V37.8413H124.807L124.729 19.6201Z" fill="#444444"/>
<path d="M136.505 19.6201H143.499V21.5144H139.02V27.536H142.69V29.3346H139.055V36.0166H143.551V37.8413H136.505V19.6201Z" fill="#444444"/>
<path d="M145.576 19.6201H149.211C150.643 19.5039 152.07 19.9075 153.234 20.7584C154.095 21.5144 154.517 22.7482 154.517 24.46C154.517 26.7771 153.773 28.1935 152.286 28.709L154.87 37.8413H152.424L150.055 29.2912H148.1V37.8413H145.576V19.6201ZM149.021 27.4404C149.851 27.5214 150.681 27.2858 151.347 26.78C151.618 26.4569 151.82 26.0812 151.942 25.6763C152.063 25.2713 152.101 24.8456 152.053 24.4253C152.071 23.8357 151.986 23.2477 151.804 22.6874C151.73 22.4808 151.615 22.2913 151.467 22.1301C151.319 21.969 151.141 21.8393 150.942 21.749C150.383 21.5176 149.78 21.4137 149.176 21.4449H148.065V27.4751L149.021 27.4404Z" fill="#444444"/>
<path d="M157.911 36.4945C157.088 35.0926 156.707 33.4714 156.817 31.8458V25.7634C156.788 24.5896 156.933 23.418 157.248 22.2877C157.497 21.438 158.026 20.6992 158.747 20.1936C159.618 19.6642 160.626 19.41 161.641 19.4637C162.298 19.4007 162.961 19.4832 163.582 19.7053C164.204 19.9274 164.771 20.2839 165.242 20.7497C166.068 21.9176 166.459 23.3426 166.344 24.7728V25.4506H163.976V24.8858C163.992 24.2103 163.94 23.5348 163.821 22.8699C163.742 22.4437 163.509 22.0626 163.166 21.8011C162.719 21.5349 162.202 21.4108 161.684 21.4449C161.122 21.3963 160.562 21.5709 160.125 21.9315C159.768 22.2734 159.534 22.7261 159.462 23.2175C159.353 23.9332 159.304 24.657 159.315 25.3811V32.1499C159.247 33.1785 159.421 34.2088 159.824 35.1564C160.057 35.4478 160.354 35.6814 160.691 35.8395C161.028 35.9975 161.396 36.0757 161.768 36.0682C162.139 36.0606 162.504 35.9675 162.835 35.7959C163.165 35.6243 163.452 35.3788 163.674 35.0782C164.089 34.076 164.269 32.9905 164.2 31.9066V30.6206H161.908V28.822H166.474V37.8413H164.914L164.665 35.7472C164.467 36.4429 164.042 37.0508 163.459 37.472C162.876 37.8933 162.168 38.103 161.452 38.0672C160.778 38.1272 160.1 38.0144 159.481 37.7395C158.862 37.4645 158.322 37.0363 157.911 36.4945V36.4945Z" fill="#444444"/>
<path d="M171.711 31.4113L167.809 19.6201H170.152L172.917 28.4136L175.639 19.6201H178.008L174.132 31.4113V37.8413H171.72L171.711 31.4113Z" fill="#444444"/>
</g>
<defs>
<filter id="filter0_d_2403_706" x="0" y="0" width="182" height="59.6832" filterUnits="userSpaceOnUse" color-interpolation-filters="sRGB">
<feFlood flood-opacity="0" result="BackgroundImageFix"/>
<feColorMatrix in="SourceAlpha" type="matrix" values="0 0 0 0 0 0 0 0 0 0 0 0 0 0 0 0 0 0 127 0" result="hardAlpha"/>
<feOffset dy="4"/>
<feGaussianBlur stdDeviation="2"/>
<feComposite in2="hardAlpha" operator="out"/>
<feColorMatrix type="matrix" values="0 0 0 0 0 0 0 0 0 0 0 0 0 0 0 0 0 0 0.25 0"/>
<feBlend mode="normal" in2="BackgroundImageFix" result="effect1_dropShadow_2403_706"/>
<feBlend mode="normal" in="SourceGraphic" in2="effect1_dropShadow_2403_706" result="shape"/>
</filter>
<clipPath id="clip0_2403_706">
<rect width="174" height="51.6832" fill="white" transform="translate(4)"/>
</clipPath>
</defs>
</svg>
